<?xml version="1.0" encoding="UTF-8"?>
<svg id="Layer_2" data-name="Layer 2" xmlns="http://www.w3.org/2000/svg" xmlns:xlink="http://www.w3.org/1999/xlink" viewBox="0 0 156.96 350.96">
  <defs>
    <style>
      .cls-1 {
        fill: url(#Degradado_sin_nombre_32);
      }
    </style>
    <linearGradient id="Degradado_sin_nombre_32" data-name="Degradado sin nombre 32" x1="41.37" y1="390.42" x2="183.54" y2="-2.73" gradientUnits="userSpaceOnUse">
      <stop offset="0" stop-color="#f1603a"/>
      <stop offset=".03" stop-color="#f16338"/>
      <stop offset=".46" stop-color="#f68b26"/>
      <stop offset=".79" stop-color="#f9a31c"/>
      <stop offset="1" stop-color="#fbad18"/>
    </linearGradient>
  </defs>
  <g id="Layer_1-2" data-name="Layer 1">
    <path class="cls-1" d="M88.12,53.36s-2.16,6.45-6.58,17.5c-94.17,235.2,41.18,280.1,41.18,280.1,12.39-1.96,23.8-4.78,34.24-8.45-52.38-7.95-80.76-38.19-91.76-81.1-3.86-15.05-5.57-31.65-5.44-49.4.13-16.8,1.91-34.61,5.11-53.09,2.73-15.75,6.02-30.56,9.63-44.33,4.23-16.16,8.89-30.89,13.57-44C104.02,25.91,120.15,0,120.15,0c-20.96,24.08-38.41,48.49-52.9,72.76-6.28,10.51-12,21-17.21,31.42-16.67,33.34-28.11,66.02-35.8,96.84-4.18,16.76-7.25,32.96-9.45,48.41C-.61,287.4-.72,320.83.95,346.8c5.68,1.17,11.4,2.21,17.16,3.11,0,0-25.94-160.13,70-296.55Z"/>
  </g>
</svg>