<?xml version="1.0" encoding="UTF-8"?>
<svg id="Layer_2" data-name="Layer 2" xmlns="http://www.w3.org/2000/svg" viewBox="0 0 324.41 372.95">
  <defs>
    <style>
      .cls-1 {
        fill: #fff;
      }
    </style>
  </defs>
  <g id="Layer_1-2" data-name="Layer 1">
    <g>
      <g>
        <path class="cls-1" d="M220.82,99.22c16.62,4.46,33.84,11.14,51.67,20.05l36.5-87.92c-18.85-10.62-40.1-18.51-63.75-23.65-9.15-1.99-18.35-3.58-27.6-4.8-10.53,20.19-25.56,51.71-38.95,89.76,13.72.52,27.76,2.71,42.13,6.55Z"/>
        <path class="cls-1" d="M75.23,266.98c-9.82-4.06-27.37-10.98-36.16-16.08L0,339.32c16.39,9.9,45.08,20.47,69.57,27.02-1.66-16.53,1.43-78.71,5.67-99.36Z"/>
        <path class="cls-1" d="M209.69,1.95c-12.06-1.3-24.2-1.95-36.43-1.95-37.02,0-67.95,5.49-92.8,16.45-24.85,10.97-43.53,25.63-56.04,43.96-12.52,18.34-18.77,38.65-18.77,60.92,0,19.2,3.6,35.22,10.8,48.07,7.2,12.85,16.71,23.22,28.53,31.1,10.48,6.99,27.62,14.94,39.99,19.5,0,0,16.49-107.87,124.72-218.05Z"/>
        <path class="cls-1" d="M313.62,207.71c-7.2-12.68-16.71-22.96-28.53-30.85-11.83-7.88-24.77-14.22-38.82-19.02-14.06-4.8-28.2-8.56-42.42-11.31-14.23-2.74-27.25-5.31-39.07-7.71-.11-.02-.21-.05-.32-.07-7.51,28.28-13.23,58.65-15.32,89.68-.1,1.48-.16,2.93-.22,4.38-.04,1-.07,1.99-.1,2.98,5.71,1.21,11.21,2.39,16.48,3.54,11.82,2.57,21.34,5.74,28.53,9.51,7.2,3.78,10.8,8.92,10.8,15.42,0,4.11-1.54,7.63-4.63,10.54-3.08,2.92-7.97,5.14-14.65,6.68-6.68,1.54-15.86,2.31-27.51,2.31-.79,0-1.58-.03-2.37-.04.24.72.48,1.44.74,2.14,15.24,42.37,57.3,68.49,96.58,72.37,23.22-10.97,40.85-25.24,52.86-42.85,12.51-18.33,18.77-38.47,18.77-60.41,0-18.85-3.6-34.61-10.8-47.3Z"/>
      </g>
      <path class="cls-1" d="M167.98,75.35s-2.16,6.45-6.58,17.5c-94.17,235.2,41.18,280.1,41.18,280.1,12.39-1.96,23.8-4.78,34.24-8.45-52.38-7.95-80.76-38.19-91.76-81.1-3.86-15.05-5.57-31.65-5.44-49.4.13-16.8,1.91-34.61,5.11-53.09,2.73-15.75,6.02-30.56,9.63-44.33,4.23-16.16,8.89-30.89,13.57-44,15.94-44.69,32.08-70.6,32.08-70.6-20.96,24.08-38.41,48.49-52.9,72.76-6.28,10.51-12,21-17.21,31.42-16.67,33.34-28.11,66.02-35.8,96.84-4.18,16.76-7.25,32.96-9.45,48.41-5.4,37.97-5.51,71.41-3.84,97.38,5.68,1.17,11.4,2.21,17.16,3.11,0,0-25.94-160.13,70-296.55Z"/>
    </g>
  </g>
</svg>